<svg width="14" height="11" viewBox="0 0 14 11" fill="none" xmlns="http://www.w3.org/2000/svg">
<path d="M4.5 9.5C4.5 9.76522 4.39464 10.0196 4.2071 10.2071C4.01957 10.3946 3.76521 10.5 3.5 10.5C3.23478 10.5 2.98043 10.3946 2.79289 10.2071C2.60535 10.0196 2.5 9.76522 2.5 9.5M4.5 9.5C4.5 9.23478 4.39464 8.98043 4.2071 8.79289C4.01957 8.60536 3.76521 8.5 3.5 8.5C3.23478 8.5 2.98043 8.60536 2.79289 8.79289C2.60535 8.98043 2.5 9.23478 2.5 9.5M4.5 9.5H8.5M2.5 9.5H1.25C1.05108 9.5 0.860319 9.42098 0.719667 9.28033C0.579015 9.13968 0.499997 8.94891 0.499997 8.75V6.5M8.5 9.5H10M8.5 9.5V6.5M0.499997 6.5V1.41C0.498938 1.22745 0.565638 1.05099 0.68719 0.914783C0.808741 0.778576 0.9765 0.692305 1.158 0.672666C3.38003 0.442018 5.61997 0.442018 7.842 0.672666C8.21866 0.711332 8.5 1.03133 8.5 1.41V2.04867M0.499997 6.5H8.5M12 9.5C12 9.76522 11.8946 10.0196 11.7071 10.2071C11.5196 10.3946 11.2652 10.5 11 10.5C10.7348 10.5 10.4804 10.3946 10.2929 10.2071C10.1054 10.0196 10 9.76522 10 9.5M12 9.5C12 9.23478 11.8946 8.98043 11.7071 8.79289C11.5196 8.60536 11.2652 8.5 11 8.5C10.7348 8.5 10.4804 8.60536 10.2929 8.79289C10.1054 8.98043 10 9.23478 10 9.5M12 9.5H12.75C13.164 9.5 13.5027 9.164 13.4767 8.75067C13.3427 6.54909 12.6013 4.42771 11.3347 2.622C11.214 2.45285 11.0565 2.31334 10.874 2.21402C10.6915 2.11469 10.4889 2.05815 10.2813 2.04867H8.5M8.5 2.04867V6.5" stroke="#DEDE1C" stroke-linecap="round" stroke-linejoin="round"/>
</svg>
