<svg width="28" height="29" viewBox="0 0 28 29" fill="none" xmlns="http://www.w3.org/2000/svg">
<g clip-path="url(#clip0_349_3675)">
<path d="M17.0857 12.8756C17.0857 13.4951 16.938 14.079 16.6773 14.5909C15.8918 16.1338 15.2179 17.8263 15.1122 19.5656C15.111 19.5819 15.1105 19.5985 15.1094 19.6151C15.0922 19.7236 15.0039 19.8073 14.8959 19.8135H12.1897C12.0845 19.8135 11.9962 19.7406 11.9689 19.6408C11.9672 19.6067 11.965 19.5726 11.963 19.5387C11.8553 17.8088 11.1814 16.1259 10.3998 14.5918C10.0477 13.9005 9.90145 13.0786 10.0466 12.2144C10.2977 10.7178 11.4239 9.53601 12.8647 9.26097C15.1198 8.83105 17.0857 10.6152 17.0857 12.8756Z" fill="#DEDE1C"/>
<path d="M14.7953 20.2212H12.2742C12.1802 20.2212 12.104 20.1422 12.104 20.0445C12.104 19.9471 12.1802 19.868 12.2742 19.868H14.7953C14.8892 19.868 14.9657 19.9471 14.9657 20.0445C14.9657 20.1422 14.8892 20.2212 14.7953 20.2212Z" fill="#FCFCFC"/>
<path d="M14.7953 20.734H12.2742C12.1802 20.734 12.104 20.6549 12.104 20.5572C12.104 20.4598 12.1802 20.3808 12.2742 20.3808H14.7953C14.8892 20.3808 14.9657 20.4598 14.9657 20.5572C14.9657 20.6549 14.8892 20.734 14.7953 20.734Z" fill="#FCFCFC"/>
<path d="M14.7619 21.2464H12.3145C12.2234 21.2464 12.1494 21.1674 12.1494 21.07C12.1494 20.9726 12.2234 20.8935 12.3145 20.8935H14.7619C14.8534 20.8935 14.9273 20.9726 14.9273 21.07C14.9273 21.1674 14.8534 21.2464 14.7619 21.2464Z" fill="#FCFCFC"/>
<path d="M14.7392 21.7592H12.3373C12.2479 21.7592 12.1753 21.6801 12.1753 21.5827C12.1753 21.485 12.2479 21.406 12.3373 21.406H14.7392C14.8289 21.406 14.9014 21.485 14.9014 21.5827C14.9014 21.6801 14.8289 21.7592 14.7392 21.7592Z" fill="#FCFCFC"/>
<path d="M14.6815 22.4364C13.9176 23.0075 13.1557 23.0063 12.3952 22.4367C12.3021 22.3667 12.2458 22.2477 12.2458 22.1203V22.12C12.2458 22.0214 12.3156 21.9415 12.4017 21.9415H14.6756C14.7613 21.9415 14.8311 22.0214 14.8311 22.12C14.8311 22.2477 14.7748 22.3667 14.6815 22.4364Z" fill="#FCFCFC"/>
<path d="M13.7385 9.91722C13.7385 9.80259 13.6488 9.70955 13.5382 9.70955C13.5278 9.70955 13.5171 9.71042 13.507 9.71217C13.1065 9.71626 12.7175 9.79997 12.3508 9.96067C11.9874 10.1202 11.6614 10.348 11.381 10.6388C11.1012 10.929 10.8813 11.2673 10.7274 11.6442C10.5685 12.0341 10.4878 12.4486 10.4878 12.8756C10.4878 12.9902 10.5772 13.083 10.6878 13.083C10.7983 13.083 10.8877 12.9902 10.8877 12.8756H10.8925C10.8925 11.3624 12.0794 10.1316 13.5382 10.1316V10.1246C13.6488 10.1246 13.7385 10.0318 13.7385 9.91722Z" fill="#FCFCFC"/>
<path d="M12.463 8.93108C12.3735 8.93108 12.2917 8.86925 12.2675 8.77533L11.6519 6.37842C11.6232 6.26642 11.6873 6.1515 11.7953 6.12175C11.9033 6.092 12.0141 6.1585 12.0428 6.2705L12.6587 8.66713C12.6874 8.77913 12.6233 8.89433 12.5153 8.92408C12.4979 8.92875 12.4804 8.93108 12.463 8.93108Z" fill="#DEDE1C"/>
<path d="M10.6041 10.0453C10.5523 10.0453 10.5006 10.0246 10.4609 9.98343L8.77202 8.22701C8.69299 8.14505 8.69327 8.01234 8.7723 7.93038C8.85134 7.84872 8.97959 7.84872 9.05834 7.93068L10.7475 9.68738C10.8263 9.76934 10.8263 9.90205 10.747 9.98401C10.7076 10.0248 10.6558 10.0453 10.6041 10.0453Z" fill="#DEDE1C"/>
<path d="M9.53157 11.974C9.51441 11.974 9.49669 11.9714 9.47897 11.9668L7.16963 11.3213C7.06163 11.291 6.99779 11.176 7.02675 11.064C7.05572 10.952 7.16682 10.8858 7.27482 10.9162L9.58416 11.5613C9.69216 11.5917 9.756 11.7069 9.72704 11.8186C9.70257 11.9122 9.621 11.974 9.53157 11.974Z" fill="#DEDE1C"/>
<path d="M7.22111 14.8391C7.13167 14.8391 7.04983 14.777 7.02564 14.6833C6.99695 14.5713 7.06108 14.4561 7.16908 14.4264L9.48039 13.7879C9.58839 13.7579 9.6992 13.8244 9.72789 13.9364C9.75686 14.0484 9.69245 14.1636 9.58445 14.1933L7.27342 14.8318C7.25599 14.8368 7.23827 14.8391 7.22111 14.8391Z" fill="#DEDE1C"/>
<path d="M8.91337 17.8797C8.86134 17.8797 8.80959 17.859 8.76993 17.8179C8.6909 17.7359 8.69146 17.6029 8.77049 17.5213L10.4642 15.7698C10.5432 15.6878 10.6715 15.6881 10.7502 15.7701C10.8292 15.852 10.829 15.985 10.7499 16.0667L9.05624 17.8185C9.01659 17.8593 8.96484 17.8797 8.91337 17.8797Z" fill="#DEDE1C"/>
<path d="M18.1612 17.8821C18.1095 17.8821 18.0577 17.8613 18.0181 17.8202L16.3292 16.0638C16.2501 15.9818 16.2504 15.8491 16.3294 15.7672C16.4087 15.6855 16.5367 15.6855 16.6157 15.7675L18.3047 17.5239C18.3837 17.6061 18.3834 17.7391 18.3041 17.8208C18.2647 17.8616 18.213 17.8821 18.1612 17.8821Z" fill="#DEDE1C"/>
<path d="M19.8549 14.8423C19.8375 14.8423 19.8195 14.84 19.8021 14.8353L17.4924 14.1898C17.3847 14.1595 17.3206 14.0446 17.3498 13.9326C17.3788 13.8206 17.4899 13.7544 17.5979 13.7844L19.9075 14.4299C20.0153 14.4599 20.0791 14.5751 20.0501 14.6871C20.0257 14.7808 19.9441 14.8423 19.8549 14.8423Z" fill="#DEDE1C"/>
<path d="M17.5443 11.9706C17.4549 11.9706 17.3731 11.9087 17.3489 11.8148C17.3202 11.7028 17.3846 11.5879 17.4923 11.5578L19.8036 10.9191C19.9116 10.8893 20.0224 10.9561 20.0511 11.0681C20.0801 11.1798 20.016 11.2948 19.908 11.3248L17.5966 11.9636C17.5792 11.9682 17.5615 11.9706 17.5443 11.9706Z" fill="#DEDE1C"/>
<path d="M16.4699 10.0426C16.4179 10.0426 16.3661 10.0222 16.3265 9.9811C16.2477 9.89914 16.248 9.76614 16.327 9.68447L18.0207 7.93301C18.0997 7.85105 18.228 7.85135 18.3067 7.9333C18.3858 8.01526 18.3855 8.14826 18.3065 8.22993L16.6128 9.98139C16.5731 10.0222 16.5214 10.0426 16.4699 10.0426Z" fill="#DEDE1C"/>
<path d="M14.6104 8.93022C14.593 8.93022 14.5753 8.92789 14.5576 8.92322C14.4496 8.89289 14.386 8.77768 14.415 8.66597L15.0371 6.2708C15.0663 6.1588 15.1774 6.09259 15.2851 6.12293C15.3931 6.15297 15.457 6.26789 15.4277 6.37989L14.8056 8.77505C14.7814 8.86868 14.6996 8.93022 14.6104 8.93022Z" fill="#DEDE1C"/>
<mask id="mask0_349_3675" style="mask-type:luminance" maskUnits="userSpaceOnUse" x="0" y="3" width="27" height="22">
<path d="M0.749268 3.43405H26.3273V24.5064H0.749268V3.43405Z" fill="white"/>
</mask>
<g mask="url(#mask0_349_3675)">
<path d="M20.9634 24.5064H15.6405C14.6125 24.5064 13.776 23.639 13.776 22.5727V22.5033H14.3017V22.5727C14.3017 23.338 14.9022 23.961 15.6405 23.961H20.9634C21.0714 23.961 21.1591 23.87 21.1591 23.758V12.171C21.1591 11.8813 21.3867 11.6454 21.666 11.6454H25.752L21.0615 8.70276C20.9108 8.60826 20.8171 8.43588 20.8171 8.25301V4.85422H19.1403V6.56513C19.1403 6.75442 19.0416 6.93001 18.8824 7.02305C18.7235 7.11609 18.5275 7.11288 18.3711 7.01488L13.5384 3.98301L1.32426 11.6454H5.41055C5.68983 11.6454 5.91736 11.8813 5.91736 12.171V23.758C5.91736 23.87 6.00511 23.961 6.11311 23.961H11.4358C12.174 23.961 12.7748 23.338 12.7748 22.5727H13.3005C13.3005 23.639 12.464 24.5064 11.4358 24.5064H6.11311C5.71514 24.5064 5.39142 24.1707 5.39142 23.758V12.1905H1.25648C1.02642 12.1905 0.829826 12.0362 0.768233 11.8064C0.706358 11.5763 0.797201 11.3388 0.994076 11.2152L13.276 3.51051C13.4377 3.40872 13.6388 3.40872 13.8005 3.51022L18.6147 6.53042V4.83438C18.6147 4.54447 18.8419 4.3088 19.1215 4.3088H20.836C21.1153 4.3088 21.3428 4.54447 21.3428 4.83438V8.24222L26.0821 11.2152C26.2793 11.3388 26.3699 11.5763 26.3083 11.8064C26.2464 12.0362 26.0501 12.1905 25.8197 12.1905H21.6848V23.758C21.6848 24.1707 21.3614 24.5064 20.9634 24.5064Z" fill="#FCFCFC"/>
</g>
<path d="M14.6353 14.4182L13.4563 17.3229L13.9761 17.1619L12.8316 18.6068L12.9931 16.7443L13.2546 17.2372L14.16 14.7577L12.7762 15.5522L12.2869 15.8413L12.4846 15.2775L13.6796 11.8711H14.4452L13.1101 14.903L14.4426 14.2365L14.7894 14.063L14.6353 14.4182Z" fill="#FCFCFC"/>
</g>
<defs>
<clipPath id="clip0_349_3675">
<rect width="27" height="28" fill="white" transform="translate(0.0385742 0.626465)"/>
</clipPath>
</defs>
</svg>
