<svg width="39" height="33" viewBox="0 0 39 33" fill="none" xmlns="http://www.w3.org/2000/svg">
<path d="M23.0471 12.2491C23.0471 12.8686 22.8995 13.4525 22.6388 13.9644C21.8532 15.5073 21.1793 17.1999 21.0736 18.9391C21.0725 18.9554 21.0719 18.972 21.0708 18.9887C21.0536 19.0972 20.9653 19.1809 20.8573 19.187H18.1511C18.0459 19.187 17.9576 19.1141 17.9303 19.0143C17.9287 18.9802 17.9264 18.9461 17.9244 18.9123C17.8167 17.1824 17.1428 15.4995 16.3613 13.9653C16.0091 13.274 15.8629 12.4521 16.008 11.5879C16.2592 10.0914 17.3853 8.90955 18.8261 8.6345C21.0812 8.20459 23.0471 9.98871 23.0471 12.2491Z" fill="#DEDE1C"/>
<path d="M20.7567 19.5948H18.2356C18.1416 19.5948 18.0654 19.5157 18.0654 19.418C18.0654 19.3206 18.1416 19.2415 18.2356 19.2415H20.7567C20.8506 19.2415 20.9271 19.3206 20.9271 19.418C20.9271 19.5157 20.8506 19.5948 20.7567 19.5948Z" fill="#027979"/>
<path d="M20.7567 20.1075H18.2356C18.1416 20.1075 18.0654 20.0285 18.0654 19.9307C18.0654 19.8333 18.1416 19.7543 18.2356 19.7543H20.7567C20.8506 19.7543 20.9271 19.8333 20.9271 19.9307C20.9271 20.0285 20.8506 20.1075 20.7567 20.1075Z" fill="#027979"/>
<path d="M20.7233 20.62H18.2759C18.1847 20.62 18.1108 20.5409 18.1108 20.4435C18.1108 20.3461 18.1847 20.267 18.2759 20.267H20.7233C20.8147 20.267 20.8887 20.3461 20.8887 20.4435C20.8887 20.5409 20.8147 20.62 20.7233 20.62Z" fill="#027979"/>
<path d="M20.7006 21.1327H18.2987C18.2093 21.1327 18.1367 21.0537 18.1367 20.9563C18.1367 20.8585 18.2093 20.7795 18.2987 20.7795H20.7006C20.7903 20.7795 20.8629 20.8585 20.8629 20.9563C20.8629 21.0537 20.7903 21.1327 20.7006 21.1327Z" fill="#027979"/>
<path d="M20.6428 21.81C19.8789 22.381 19.117 22.3799 18.3565 21.8103C18.2634 21.7403 18.2072 21.6213 18.2072 21.4938V21.4935C18.2072 21.3949 18.2769 21.315 18.363 21.315H20.6369C20.7227 21.315 20.7924 21.3949 20.7924 21.4935C20.7924 21.6213 20.7362 21.7403 20.6428 21.81Z" fill="#027979"/>
<path d="M19.6999 9.29075C19.6999 9.17613 19.6102 9.08308 19.4997 9.08308C19.4892 9.08308 19.4786 9.08396 19.4684 9.08571C19.0679 9.08979 18.679 9.1735 18.3122 9.33421C17.9488 9.49375 17.6229 9.72154 17.3425 10.0123C17.0626 10.3025 16.8427 10.6409 16.6888 11.0177C16.5299 11.4077 16.4492 11.8221 16.4492 12.2491C16.4492 12.3638 16.5387 12.4565 16.6492 12.4565C16.7597 12.4565 16.8492 12.3638 16.8492 12.2491H16.8539C16.8539 10.736 18.0408 9.50513 19.4997 9.50513V9.49813C19.6102 9.49813 19.6999 9.40538 19.6999 9.29075Z" fill="#027979"/>
<path d="M18.4245 8.30463C18.335 8.30463 18.2532 8.24279 18.229 8.14888L17.6133 5.75196C17.5847 5.63996 17.6488 5.52504 17.7568 5.49529C17.8648 5.46554 17.9756 5.53204 18.0043 5.64404L18.6202 8.04067C18.6489 8.15267 18.5848 8.26788 18.4768 8.29763C18.4593 8.30229 18.4419 8.30463 18.4245 8.30463Z" fill="#DEDE1C"/>
<path d="M16.5656 9.4188C16.5138 9.4188 16.4621 9.39809 16.4224 9.35696L14.7335 7.60054C14.6545 7.51859 14.6548 7.38588 14.7338 7.30392C14.8128 7.22225 14.9411 7.22225 15.0198 7.30421L16.709 9.06092C16.7878 9.14288 16.7878 9.27559 16.7084 9.35755C16.6691 9.39838 16.6173 9.4188 16.5656 9.4188Z" fill="#DEDE1C"/>
<path d="M15.4929 11.3476C15.4758 11.3476 15.4581 11.345 15.4403 11.3403L13.131 10.6948C13.023 10.6645 12.9592 10.5496 12.9881 10.4376C13.0171 10.3256 13.1282 10.2594 13.2362 10.2897L15.5455 10.9349C15.6535 10.9652 15.7174 11.0804 15.6884 11.1921C15.6639 11.2857 15.5824 11.3476 15.4929 11.3476Z" fill="#DEDE1C"/>
<path d="M13.1826 14.2126C13.0932 14.2126 13.0113 14.1505 12.9871 14.0569C12.9584 13.9449 13.0226 13.8297 13.1306 13.7999L15.4419 13.1615C15.5499 13.1314 15.6607 13.1979 15.6894 13.3099C15.7183 13.4219 15.6539 13.5371 15.5459 13.5669L13.2349 14.2053C13.2175 14.2103 13.1998 14.2126 13.1826 14.2126Z" fill="#DEDE1C"/>
<path d="M14.8748 17.2532C14.8228 17.2532 14.771 17.2325 14.7314 17.1914C14.6523 17.1095 14.6529 16.9765 14.7319 16.8948L16.4256 15.1433C16.5046 15.0614 16.6329 15.0617 16.7116 15.1436C16.7907 15.2256 16.7904 15.3586 16.7114 15.4402L15.0177 17.192C14.978 17.2328 14.9263 17.2532 14.8748 17.2532Z" fill="#DEDE1C"/>
<path d="M24.1226 17.2556C24.0709 17.2556 24.0191 17.2349 23.9795 17.1938L22.2906 15.4373C22.2115 15.3554 22.2118 15.2227 22.2909 15.1407C22.3702 15.059 22.4981 15.059 22.5772 15.141L24.2661 16.8974C24.3451 16.9797 24.3448 17.1127 24.2655 17.1943C24.2261 17.2352 24.1744 17.2556 24.1226 17.2556Z" fill="#DEDE1C"/>
<path d="M25.8165 14.2158C25.7991 14.2158 25.7811 14.2135 25.7636 14.2088L23.454 13.5634C23.3463 13.533 23.2821 13.4181 23.3114 13.3061C23.3404 13.1941 23.4515 13.1279 23.5595 13.158L25.8691 13.8034C25.9768 13.8335 26.0406 13.9487 26.0117 14.0607C25.9872 14.1543 25.9056 14.2158 25.8165 14.2158Z" fill="#DEDE1C"/>
<path d="M23.5058 11.3441C23.4163 11.3441 23.3345 11.2823 23.3103 11.1883C23.2816 11.0763 23.346 10.9614 23.4537 10.9314L25.765 10.2926C25.873 10.2629 25.9839 10.3297 26.0125 10.4417C26.0415 10.5534 25.9774 10.6683 25.8694 10.6983L23.5581 11.3371C23.5406 11.3418 23.5229 11.3441 23.5058 11.3441Z" fill="#DEDE1C"/>
<path d="M22.4313 9.41616C22.3793 9.41616 22.3275 9.39575 22.2879 9.35462C22.2091 9.27266 22.2094 9.13966 22.2885 9.058L23.9821 7.30654C24.0612 7.22458 24.1894 7.22487 24.2682 7.30683C24.3472 7.38879 24.3469 7.52179 24.2679 7.60346L22.5742 9.35491C22.5345 9.39575 22.4828 9.41616 22.4313 9.41616Z" fill="#DEDE1C"/>
<path d="M20.5717 8.30375C20.5543 8.30375 20.5366 8.30141 20.5189 8.29675C20.4109 8.26641 20.3473 8.15121 20.3763 8.0395L20.9984 5.64433C21.0276 5.53233 21.1387 5.46612 21.2464 5.49646C21.3544 5.5265 21.4183 5.64141 21.389 5.75341L20.7669 8.14858C20.7427 8.24221 20.6609 8.30375 20.5717 8.30375Z" fill="#DEDE1C"/>
<mask id="mask0_521_1850" style="mask-type:luminance" maskUnits="userSpaceOnUse" x="6" y="2" width="27" height="22">
<path d="M6.71069 2.80759H32.2887V23.8799H6.71069V2.80759Z" fill="white"/>
</mask>
<g mask="url(#mask0_521_1850)">
<path d="M26.9249 23.88H21.6019C20.574 23.88 19.7375 23.0125 19.7375 21.9462V21.8768H20.2632V21.9462C20.2632 22.7115 20.8637 23.3345 21.6019 23.3345H26.9249C27.0329 23.3345 27.1206 23.2435 27.1206 23.1315V11.5445C27.1206 11.2549 27.3482 11.0189 27.6274 11.0189H31.7134L27.023 8.07629C26.8723 7.98179 26.7786 7.80942 26.7786 7.62654V4.22775H25.1018V5.93867C25.1018 6.12796 25.0031 6.30354 24.8439 6.39658C24.685 6.48963 24.489 6.48642 24.3326 6.38842L19.4999 3.35654L7.28575 11.0189H11.372C11.6513 11.0189 11.8788 11.2549 11.8788 11.5445V23.1315C11.8788 23.2435 11.9666 23.3345 12.0746 23.3345H17.3973C18.1355 23.3345 18.7363 22.7115 18.7363 21.9462H19.2619C19.2619 23.0125 18.4255 23.88 17.3973 23.88H12.0746C11.6766 23.88 11.3529 23.5443 11.3529 23.1315V11.564H7.21797C6.98791 11.564 6.79131 11.4098 6.72972 11.1799C6.66784 10.9498 6.75869 10.7124 6.95556 10.5887L19.2375 2.88404C19.3992 2.78225 19.6003 2.78225 19.762 2.88375L24.5762 5.90396V4.20792C24.5762 3.918 24.8034 3.68233 25.083 3.68233H26.7975C27.0768 3.68233 27.3043 3.918 27.3043 4.20792V7.61575L32.0436 10.5887C32.2408 10.7124 32.3313 10.9498 32.2698 11.1799C32.2079 11.4098 32.0116 11.564 31.7812 11.564H27.6463V23.1315C27.6463 23.5443 27.3228 23.88 26.9249 23.88Z" fill="#027979"/>
</g>
<path d="M20.5969 13.7918L19.4179 16.6965L19.9376 16.5355L18.7932 17.9804L18.9546 16.1178L19.2162 16.6107L20.1215 14.1313L18.7378 14.9258L18.2484 15.2148L18.4461 14.651L19.6412 11.2446H20.4067L19.0716 14.2765L20.4042 13.61L20.751 13.4365L20.5969 13.7918Z" fill="#027979"/>
<path d="M10.0028 31.75V28.1521H10.4516V31.75H10.0028ZM11.3692 31.75V28.1521H11.818V31.3461H13.5534V31.75H11.3692ZM13.9847 31.75L15.3112 28.1521H15.6553V28.733H15.5131L14.456 31.75H13.9847ZM14.5856 30.7202L14.7252 30.3388H16.3509L16.4905 30.7202H14.5856ZM16.6102 31.75L15.553 28.733V28.1521H15.755L17.0814 31.75H16.6102ZM17.7123 31.75V28.1521H18.1486L20.2106 31.1092L19.9114 30.9521H20.1408V28.1521H20.5846V31.75H20.1483L18.0863 28.8029L18.3855 28.9599H18.1561V31.75H17.7123ZM21.5022 31.75V28.1521H22.7364C23.0921 28.1521 23.3963 28.2236 23.6489 28.3665C23.9033 28.5078 24.0977 28.7123 24.2324 28.9799C24.367 29.2475 24.4343 29.57 24.4343 29.9473V29.9523C24.4343 30.3296 24.367 30.6529 24.2324 30.9222C24.0977 31.1898 23.9041 31.3951 23.6514 31.5381C23.3988 31.6794 23.0938 31.75 22.7364 31.75H21.5022ZM21.951 31.3461H22.7064C22.9741 31.3461 23.2026 31.2912 23.3921 31.1815C23.5816 31.0718 23.7262 30.9131 23.826 30.7053C23.9257 30.4975 23.9756 30.2482 23.9756 29.9573V29.9523C23.9756 29.6597 23.9249 29.4096 23.8235 29.2018C23.7237 28.9924 23.5791 28.8328 23.3896 28.7231C23.2001 28.6117 22.9724 28.556 22.7064 28.556H21.951V31.3461ZM25.2123 31.75V28.1521H26.5861C26.8172 28.1521 27.0183 28.197 27.1895 28.2867C27.3624 28.3748 27.4962 28.4987 27.5909 28.6582C27.6857 28.8178 27.733 29.0057 27.733 29.2217V29.2267C27.733 29.4761 27.669 29.6922 27.5411 29.875C27.4131 30.0578 27.236 30.185 27.01 30.2565L27.8428 31.75H27.3167L26.5462 30.3263C26.5429 30.3263 26.5387 30.3263 26.5337 30.3263C26.5288 30.3263 26.5246 30.3263 26.5213 30.3263H25.6611V31.75H25.2123ZM25.6611 29.9274H26.5462C26.7773 29.9274 26.9551 29.8684 27.0798 29.7503C27.2061 29.6307 27.2693 29.4611 27.2693 29.2417V29.2367C27.2693 29.0223 27.2036 28.8544 27.0723 28.733C26.941 28.6117 26.759 28.551 26.5263 28.551H25.6611V29.9274ZM28.5484 31.75V28.1521H28.9972V31.75H28.5484Z" fill="#027979"/>
</svg>
